Coordinates
version=1
nRows=4
nColumns=63
inDegrees=yes

Units are S.I. units (second, meters, Newtons, ...)
If the header above contains a line with 'inDegrees', this indicates whether rotational values are in degrees (yes) or radians (no).

endheader
time	pelvis_tilt	pelvis_list	pelvis_rotation	pelvis_tx	pelvis_ty	pelvis_tz	hip_flexion_r	hip_adduction_r	hip_rotation_r	knee_angle_r	knee_angle_r_beta	ankle_angle_r	subtalar_angle_r	mtp_angle_r	hip_flexion_l	hip_adduction_l	hip_rotation_l	knee_angle_l	knee_angle_l_beta	ankle_angle_l	subtalar_angle_l	mtp_angle_l	L5_S1_Flex_Ext	L5_S1_Lat_Bending	L5_S1_axial_rotation	L4_L5_Flex_Ext	L4_L5_Lat_Bending	L4_L5_axial_rotation	L3_L4_Flex_Ext	L3_L4_Lat_Bending	L3_L4_axial_rotation	L2_L3_Flex_Ext	L2_L3_Lat_Bending	L2_L3_axial_rotation	L1_L2_Flex_Ext	L1_L2_Lat_Bending	L1_L2_axial_rotation	L1_T12_Flex_Ext	L1_T12_Lat_Bending	L1_T12_axial_rotation	Abs_r3	Abs_r2	Abs_r1	Abs_t1	Abs_t2	neck_flexion	neck_bending	neck_rotation	arm_flex_r	arm_add_r	arm_rot_r	elbow_flex_r	pro_sup_r	wrist_flex_r	wrist_dev_r	arm_flex_l	arm_add_l	arm_rot_l	elbow_flex_l	pro_sup_l	wrist_flex_l	wrist_dev_l
      1.98333333	      3.61215802	      1.37283822	    104.75759602	     -0.13867425	      0.76663793	      0.70274233	      4.14288502	     -2.17346184	    -25.67667681	     21.62888516	      0.37749526	     34.82902408	      7.63635002	      0.00000000	      6.42183123	     -1.92604120	      0.40625600	     17.38591968	      0.30344154	     36.82516025	     16.72127987	      0.00000000	     -0.53971625	      0.48518415	     -3.08497709	     -1.00230705	      0.64529492	     -3.27778816	     -0.88669983	      1.17967673	     -3.27778816	     -0.61684170	      1.17967673	     -2.69935495	     -0.50118051	      0.98938751	     -2.50654388	     -0.30839387	      0.75155024	     -2.31373282	     -3.85513920	      5.48850011	    -17.15771707	      0.00000000	      0.00000000	     14.91870122	     -0.64795643	     10.72884666	    110.38235103	     -0.97503006	    125.21970796	      0.15079049	      1.13769013	    -69.23447750	    -23.56491052	     -3.97537398	    -24.34286302	    111.31964294	      1.34898570	      1.89183857	      4.76744944	    -21.39086892
      2.00000000	      2.65518115	      0.97824302	    104.14950125	     -0.13419188	      0.76676666	      0.70255890	      4.53632140	     -2.81452879	    -23.86042336	     21.86850339	      0.38167739	     34.55062717	      5.77197512	      0.00000000	      6.51604630	     -1.20097095	     -0.59387213	     17.21924493	      0.30053252	     36.48658320	     17.09420289	      0.00000000	     -0.53181448	      0.37184148	     -2.66677267	     -0.98763267	      0.49454917	     -2.83344596	     -0.87371801	      0.90409537	     -2.83344596	     -0.60781077	      0.90409537	     -2.33342608	     -0.49384293	      0.75825914	     -2.16675279	     -0.30387879	      0.57598245	     -2.00007950	     -3.79869765	      4.20634517	    -14.83178954	      0.00000000	      0.00000000	     15.68089578	     -1.93325899	     10.84010958	    111.72447742	      4.62099996	    135.73332925	      0.14537518	      1.24088522	    -69.15549813	    -23.42886818	     -2.14560521	    -24.70236049	    115.91738397	      1.10275670	      1.85469004	      3.12717651	    -21.70653022
      2.01666667	      1.80681335	      0.52602235	    103.86311917	     -0.13101054	      0.76662353	      0.70211041	      4.82539345	     -3.57063806	    -23.28160197	     22.03003610	      0.38449666	     34.41335129	      5.17113550	      0.00000000	      6.69544838	     -0.44720711	     -1.00717710	     17.00975459	      0.29687622	     36.20673453	     17.21229178	      0.00000000	     -0.51281671	      0.27583983	     -2.36088105	     -0.95235191	      0.36686697	     -2.50843612	     -0.84250657	      0.67067696	     -2.50843612	     -0.58609822	      0.67067696	     -2.06577092	     -0.47620160	      0.56249258	     -1.91821586	     -0.29302347	      0.42727590	     -1.77066079	     -3.66299847	      3.12035533	    -13.13051215	      0.00000000	      0.00000000	     15.85740807	     -2.29695754	     11.24764832	    113.40974287	     10.14446760	    146.05715571	      0.13098643	      1.33243852	    -69.32493497	    -23.21771926	     -0.68998474	    -24.83531013	    118.62941428	      1.02025839	      2.14472340	      1.29655799	    -22.37958432
      2.03333333	      1.19664555	      0.22135995	    103.43509152	     -0.12816948	      0.76621575	      0.70179210	      5.06271078	     -4.00214761	    -22.30941143	     22.15732924	      0.38671835	     34.25985290	      4.23880668	      0.00000000	      6.85625069	      0.02598407	     -1.57228168	     16.96300745	      0.29606033	     36.13626643	     17.35167453	      0.00000000	     -0.52088238	      0.23322109	     -2.08083144	     -0.96733066	      0.31018405	     -2.21088340	     -0.85575766	      0.56705376	     -2.21088340	     -0.59531647	      0.56705376	     -1.82072751	     -0.48369138	      0.47558445	     -1.69067554	     -0.29763219	      0.36125947	     -1.56062358	     -3.72061073	      2.63824364	    -11.57296021	      0.00000000	      0.00000000	     15.81278896	     -3.12671133	     12.07746340	    115.46536619	     15.96104366	    154.77132315	      0.11401291	      1.37028065	    -69.53483237	    -22.90964452	      0.79826210	    -24.72335786	    125.92901219	      0.82303081	      2.42122685	     -3.88071526	    -22.80432650
